<svg width="630" height="530" viewBox="0 0 630 530" fill="none" xmlns="http://www.w3.org/2000/svg">
<path d="M0 50C0 22.3858 22.3858 0 50 0H580C607.614 0 630 22.3858 630 50V265V480C630 507.614 607.614 530 580 530H50C22.3858 530 0 507.614 0 480V50Z" fill="#FFCC00"/>
<path d="M0 53.4473C0 25.833 22.3858 3.44727 50 3.44727H574.895C602.509 3.44727 624.895 25.833 624.895 53.4473V266.724V480C624.895 507.614 602.509 530 574.895 530H50C22.3858 530 0 507.614 0 480V53.4473Z" fill="black"/>
<path d="M50 13.4026H562.642C589.98 13.4026 612.142 35.5645 612.142 62.9026V479.976C612.142 507.314 589.98 529.476 562.642 529.476H50C22.6619 529.476 0.5 507.314 0.5 479.976V62.9026L0.503906 62.2629C0.846383 35.2196 22.8754 13.4026 50 13.4026Z" fill="white" stroke="black"/>
</svg>
