<svg width="630" height="530" viewBox="0 0 630 530" fill="none" xmlns="http://www.w3.org/2000/svg">
<path d="M0.504395 50C0.504395 22.3858 22.8902 0 50.5044 0H580C607.614 0 630 22.3858 630 50V265V480C630 507.614 607.614 530 580 530H50.5044C22.8901 530 0.504395 507.614 0.504395 480V50Z" fill="#FFCC00"/>
<path d="M0 58.521C0 30.9068 22.3858 8.521 50 8.521H567.39C595.004 8.521 617.39 30.9068 617.39 58.521V269.261V480C617.39 507.614 595.004 530 567.39 530H50C22.3857 530 0 507.614 0 480V58.521Z" fill="black"/>
<path d="M50 19.7461H555.284C582.346 19.7461 604.284 41.6841 604.284 68.7461V480C604.284 507.062 582.346 529 555.284 529H50C22.938 529 1 507.062 1 480V68.7461C1.00001 41.6841 22.9381 19.7461 50 19.7461Z" fill="white" stroke="black" stroke-width="2"/>
</svg>
