<svg width="188" height="53" viewBox="0 0 188 53" fill="none" xmlns="http://www.w3.org/2000/svg">
<path d="M77.0308 40.9675C75.0062 40.9675 73.1879 40.4979 71.5757 39.5587C69.9636 38.6195 68.6889 37.3422 67.7516 35.7268C66.8518 34.0738 66.4019 32.1579 66.4019 29.979V10.3687C66.4019 9.35434 66.1582 8.43393 65.6708 7.60744C65.1834 6.78095 64.5273 6.12352 63.7025 5.63514C62.8777 5.14676 61.9778 4.90257 61.0031 4.90257C60.0283 4.90257 59.1285 5.14676 58.3037 5.63514C57.5163 6.12352 56.879 6.78095 56.3916 7.60744C55.9417 8.43393 55.7167 9.35434 55.7167 10.3687V40.2913H50.3179V11.1012C50.3179 9.03501 50.7678 7.17542 51.6676 5.52244C52.5674 3.86947 53.8234 2.57338 55.4355 1.63419C57.0477 0.657434 58.9035 0.169055 61.0031 0.169055C63.1401 0.169055 65.0147 0.657434 66.6268 1.63419C68.239 2.57338 69.4949 3.86947 70.3948 5.52244C71.2946 7.17542 71.7445 9.03501 71.7445 11.1012V30.7115C71.7445 31.7634 71.9882 32.7026 72.4755 33.5291C72.9629 34.318 73.6003 34.9567 74.3876 35.445C75.2124 35.9334 76.0935 36.1776 77.0308 36.1776C77.9681 36.1776 78.8304 35.9334 79.6177 35.445C80.4051 34.9567 81.0237 34.318 81.4736 33.5291C81.961 32.7026 82.2047 31.7634 82.2047 30.7115V11.1012C82.2047 9.03501 82.6546 7.17542 83.5544 5.52244C84.4917 3.86947 85.7664 2.57338 87.3785 1.63419C88.9907 0.657434 90.8653 0.169055 93.0023 0.169055C95.1018 0.169055 96.9577 0.657434 98.5698 1.63419C100.182 2.57338 101.438 3.86947 102.338 5.52244C103.238 7.17542 103.687 9.03501 103.687 11.1012V40.2913H98.2886V10.3687C98.2886 9.35434 98.0449 8.43393 97.5575 7.60744C97.1076 6.78095 96.4703 6.12352 95.6455 5.63514C94.8581 5.14676 93.9771 4.90257 93.0023 4.90257C91.99 4.90257 91.0715 5.14676 90.2466 5.63514C89.4593 6.12352 88.822 6.78095 88.3346 7.60744C87.8472 8.43393 87.6035 9.35434 87.6035 10.3687V29.979C87.6035 32.1579 87.1348 34.0738 86.1975 35.7268C85.2977 37.3422 84.0418 38.6195 82.4296 39.5587C80.855 40.4979 79.0554 40.9675 77.0308 40.9675Z" fill="black"/>
<path d="M111.722 40.2913V11.552H116.952V40.2913H111.722ZM114.365 6.98758C113.428 6.98758 112.603 6.64947 111.891 5.97325C111.216 5.25947 110.878 4.43298 110.878 3.49379C110.878 2.5546 111.216 1.74689 111.891 1.07068C112.603 0.356892 113.428 0 114.365 0C115.302 0 116.108 0.356892 116.783 1.07068C117.496 1.74689 117.852 2.5546 117.852 3.49379C117.852 4.43298 117.496 5.25947 116.783 5.97325C116.108 6.64947 115.302 6.98758 114.365 6.98758Z" fill="black"/>
<path d="M125.122 40.2913V23.6676C125.122 21.113 125.685 18.8777 126.809 16.9618C127.972 15.0458 129.565 13.5619 131.59 12.51C133.614 11.4206 135.92 10.8758 138.507 10.8758C141.131 10.8758 143.437 11.4206 145.424 12.51C147.449 13.5619 149.023 15.0458 150.148 16.9618C151.31 18.8777 151.891 21.113 151.891 23.6676V40.2913H146.718V23.724C146.718 21.9958 146.324 20.5119 145.537 19.2722C144.787 17.9949 143.775 17.0181 142.5 16.3419C141.263 15.6657 139.932 15.3276 138.507 15.3276C137.082 15.3276 135.732 15.6657 134.458 16.3419C133.221 17.0181 132.208 17.9949 131.421 19.2722C130.671 20.5119 130.296 21.9958 130.296 23.724V40.2913H125.122Z" fill="black"/>
<path d="M173.322 40.9675C171.147 40.9675 169.16 40.6294 167.361 39.9532C165.561 39.2394 164.005 38.2063 162.693 36.8538C161.381 35.5014 160.35 33.886 159.6 32.0076C158.888 30.0917 158.531 27.9503 158.531 25.5835C158.531 22.5781 159.131 19.986 160.331 17.8071C161.568 15.5906 163.237 13.8812 165.336 12.6791C167.473 11.4769 169.854 10.8758 172.478 10.8758C173.941 10.8758 175.328 11.12 176.64 11.6084C177.99 12.0968 179.189 12.773 180.239 13.637C181.289 14.5011 182.114 15.5154 182.714 16.68H182.826L182.714 5.52244L188 5.52243V25.7526C188 28.9459 187.344 31.6883 186.032 33.9799C184.757 36.234 183.014 37.9621 180.802 39.1642C178.627 40.3664 176.134 40.9675 173.322 40.9675ZM173.322 36.5157C175.084 36.5157 176.677 36.0837 178.102 35.2196C179.527 34.3556 180.652 33.1346 181.476 31.5568C182.339 29.979 182.77 28.1194 182.77 25.978C182.77 23.7991 182.339 21.9207 181.476 20.3429C180.652 18.7275 179.527 17.4877 178.102 16.6237C176.677 15.7596 175.065 15.3276 173.266 15.3276C171.504 15.3276 169.891 15.7784 168.429 16.68C167.005 17.5816 165.861 18.8214 164.999 20.3992C164.174 21.9771 163.762 23.8179 163.762 25.9217C163.762 28.1006 164.193 29.979 165.055 31.5568C165.917 33.1346 167.061 34.3556 168.486 35.2196C169.948 36.0837 171.56 36.5157 173.322 36.5157Z" fill="black"/>
<path d="M37.5016 47.7059H151.457V52.1547H37.5016V47.7059Z" fill="black"/>
<path d="M0 52.1547V31.5865C0 29.0319 0.712344 27.0408 2.13703 25.6132C3.59921 24.1481 5.60502 23.4155 8.15446 23.4155H14.0594V27.8673H9.1105C7.87327 27.8673 6.89849 28.2242 6.18614 28.9379C5.51129 29.6517 5.17386 30.6473 5.17386 31.9246V52.1547H0Z" fill="black"/>
<path d="M33.4069 52.1547C30.2576 52.1547 27.4645 51.5724 25.0275 50.4078C22.5906 49.2057 20.6785 47.5339 19.2913 45.3926C17.9416 43.2136 17.2667 40.6778 17.2667 37.7851C17.2667 34.93 17.8478 32.3754 19.0101 30.1213C20.1723 27.8297 21.7845 26.0264 23.8465 24.7116C25.9086 23.3967 28.308 22.7393 31.0449 22.7393C34.0068 22.7393 36.4625 23.3779 38.4121 24.6552C40.3991 25.9325 41.8801 27.6606 42.8549 29.8396C43.8296 31.9809 44.317 34.3852 44.317 37.0525C44.317 37.4658 44.2983 37.8978 44.2608 38.3486C44.2608 38.7994 44.2233 39.1939 44.1483 39.532H22.778C22.9655 41.2977 23.5466 42.8004 24.5214 44.0401C25.4962 45.2423 26.7334 46.1627 28.2331 46.8013C29.7702 47.4024 31.4574 47.703 33.2945 47.703H40.7741V52.1547H33.4069ZM22.7218 35.8692H39.0869C39.0869 35.1554 39.0119 34.404 38.862 33.6151C38.712 32.7886 38.4496 31.9997 38.0747 31.2484C37.6997 30.4594 37.1936 29.7644 36.5562 29.1633C35.9564 28.5247 35.1878 28.0175 34.2505 27.6419C33.3507 27.2662 32.2822 27.0783 31.0449 27.0783C29.7327 27.0783 28.5705 27.3413 27.5582 27.8673C26.5834 28.3556 25.7399 29.0319 25.0275 29.8959C24.3152 30.7224 23.7715 31.6616 23.3966 32.7135C23.0217 33.7654 22.7968 34.8173 22.7218 35.8692Z" fill="black"/>
</svg>
