<svg width="1140" height="1110" viewBox="0 0 1140 1110" fill="none" xmlns="http://www.w3.org/2000/svg">
<path d="M540 50C540 22.3858 562.386 0 590 0L1090 0C1117.61 0 1140 22.3858 1140 50V300V550C1140 577.614 1117.61 600 1090 600H590C562.386 600 540 577.614 540 550V50Z" fill="white"/>
<path d="M270 290C270 262.386 292.386 240 320 240L820 240C847.614 240 870 262.386 870 290V540V790C870 817.614 847.614 840 820 840H320C292.386 840 270 817.614 270 790V290Z" fill="#FFCC00"/>
<path d="M50 511H550C577.062 511 599 532.938 599 560V1060C599 1087.06 577.062 1109 550 1109H50C22.938 1109 1 1087.06 1 1060V560C1 532.938 22.938 511 50 511Z" fill="black" stroke="black" stroke-width="2"/>
</svg>
