<svg width="1000" height="1000" viewBox="0 0 1000 1000" fill="none" xmlns="http://www.w3.org/2000/svg">
<path d="M400 50C400 22.3858 422.386 0 450 0L950 0C977.614 0 1000 22.3858 1000 50V300V550C1000 577.614 977.614 600 950 600H450C422.386 600 400 577.614 400 550L400 50Z" fill="white"/>
<path d="M200 250C200 222.386 222.386 200 250 200L750 200C777.614 200 800 222.386 800 250V500V750C800 777.614 777.614 800 750 800H250C222.386 800 200 777.614 200 750L200 250Z" fill="#FFCC00"/>
<path d="M50 401H550C577.062 401 599 422.938 599 450V950C599 977.062 577.062 999 550 999H50C22.938 999 1 977.062 1 950V450C1 422.938 22.938 401 50 401Z" fill="black" stroke="black" stroke-width="2"/>
</svg>
